<svg width="46" height="40" viewBox="0 0 46 40" fill="none" xmlns="http://www.w3.org/2000/svg">
<path fill-rule="evenodd" clip-rule="evenodd" d="M14.1459 31.4584C14.1459 30.5955 13.4463 29.8959 12.5834 29.8959H2.16669C1.30375 29.8959 0.604187 30.5955 0.604187 31.4584C0.604187 32.3213 1.30375 33.0209 2.16669 33.0209H12.5834C13.4463 33.0209 14.1459 32.3213 14.1459 31.4584Z" fill="#D8D8D8"/>
<path fill-rule="evenodd" clip-rule="evenodd" d="M31.8542 8.54163C31.8542 7.67869 32.5538 6.97913 33.4167 6.97913H43.8334C44.6963 6.97913 45.3959 7.67869 45.3959 8.54163C45.3959 9.40456 44.6963 10.1041 43.8334 10.1041H33.4167C32.5538 10.1041 31.8542 9.40456 31.8542 8.54163Z" fill="#D8D8D8"/>
<path fill-rule="evenodd" clip-rule="evenodd" d="M45.3959 31.4584C45.3959 30.5955 44.6963 29.8959 43.8334 29.8959H25.0834C24.2205 29.8959 23.5209 30.5955 23.5209 31.4584C23.5209 32.3213 24.2205 33.0209 25.0834 33.0209H43.8334C44.6963 33.0209 45.3959 32.3213 45.3959 31.4584Z" fill="#D8D8D8"/>
<path fill-rule="evenodd" clip-rule="evenodd" d="M0.604187 8.54163C0.604187 7.67869 1.30375 6.97913 2.16669 6.97913H20.9167C21.7796 6.97913 22.4792 7.67869 22.4792 8.54163C22.4792 9.40456 21.7796 10.1041 20.9167 10.1041H2.16669C1.30375 10.1041 0.604187 9.40456 0.604187 8.54163Z" fill="#D8D8D8"/>
<path fill-rule="evenodd" clip-rule="evenodd" d="M18.8334 26.5623C21.4221 26.5623 23.5209 28.661 23.5209 31.2498C23.5209 33.8385 21.4221 35.9373 18.8334 35.9373C16.2445 35.9373 14.1459 33.8385 14.1459 31.2498C14.1459 28.661 16.2445 26.5623 18.8334 26.5623ZM26.6459 31.2498C26.6459 26.935 23.1482 23.4373 18.8334 23.4373C14.5186 23.4373 11.0209 26.935 11.0209 31.2498C11.0209 35.5645 14.5186 39.0623 18.8334 39.0623C23.1482 39.0623 26.6459 35.5645 26.6459 31.2498Z" fill="#D8D8D8"/>
<path fill-rule="evenodd" clip-rule="evenodd" d="M27.1667 3.64563C24.5779 3.64563 22.4792 5.7443 22.4792 8.33313C22.4792 10.922 24.5779 13.0206 27.1667 13.0206C29.7554 13.0206 31.8542 10.922 31.8542 8.33313C31.8542 5.7443 29.7554 3.64563 27.1667 3.64563ZM19.3542 8.33313C19.3542 4.0184 22.8519 0.52063 27.1667 0.52063C31.4815 0.52063 34.9792 4.0184 34.9792 8.33313C34.9792 12.6479 31.4815 16.1456 27.1667 16.1456C22.8519 16.1456 19.3542 12.6479 19.3542 8.33313Z" fill="#D8D8D8"/>
</svg>
