<svg width="40" height="40" viewBox="0 0 40 40" fill="none" xmlns="http://www.w3.org/2000/svg">
<g clip-path="url(#clip0_6_15)">
<rect width="40" height="40" fill="black"/>
<path d="M31.2288 15.6737V12.5675H25.1012L20.5112 19.9987L17.8875 24.2663L13.8375 30.8363C13.43 31.4738 12.7262 31.8913 11.925 31.8925H0V27.4325H10.6725L15.2638 20L17.8875 15.7325L21.9375 9.1625C22.3437 8.52625 23.045 8.10875 23.8438 8.10625H31.2238V5L40.495 10.3375L31.2238 15.675L31.2288 15.6737Z" fill="#E75516"/>
<path d="M16.1275 12.895L15.34 14.1725L13.505 17.16L10.6737 12.5662H0.00125122V8.10625H11.9263C12.7275 8.1075 13.4313 8.525 13.8338 9.15375L13.8388 9.1625L16.1338 12.8938L16.1275 12.895Z" fill="white"/>
<path d="M31.2288 35V31.8938H23.8488C23.05 31.8912 22.3475 31.4738 21.9475 30.8463L21.9425 30.8375L19.6475 27.1062L20.435 25.8288L22.27 22.8412L25.1 27.435H31.2275V24.3288L40.4988 29.6663L31.2275 35.0038L31.2288 35Z" fill="white"/>
</g>
<defs>
<clipPath id="clip0_6_15">
<rect width="40" height="40" fill="white"/>
</clipPath>
</defs>
</svg>
