<svg width="40" height="40" viewBox="0 0 40 40" fill="none" xmlns="http://www.w3.org/2000/svg">
<path d="M9.50002 5C7.01473 5 5.00002 7.12074 5.00002 9.73684L5 25.5263C5 28.1424 7.01473 30.2631 9.5 30.2631H14C14.8284 30.2631 15.5 29.5562 15.5 28.6842C15.5 27.8121 14.8284 27.1052 14 27.1052H9.5C8.67156 27.1052 8 26.3983 8 25.5263V9.73684C8 8.86482 8.67156 8.15789 9.5 8.15789H30.5C31.3284 8.15789 32 8.86482 32 9.73684V25.5263C32 26.3983 31.3284 27.1052 30.5 27.1052H23.004L24.9231 25.078C25.5101 24.4581 25.5101 23.4531 24.9231 22.8332C24.3363 22.2135 23.3849 22.2135 22.7981 22.8332L19.3906 26.4326L19.3707 26.4536C18.206 27.6932 18.2086 29.6957 19.3789 30.9317L22.7906 34.5354C23.377 35.1549 24.3278 35.1549 24.9143 34.5354C25.5008 33.9159 25.5008 32.9115 24.9143 32.2921L22.9934 30.2631H30.5C32.9854 30.2631 35 28.1424 35 25.5263V9.73684C35 7.12076 32.9854 5 30.5 5H9.50002Z" fill="#F1EBEB"/>
</svg>
