<svg width="50" height="50" viewBox="0 0 50 50" fill="none" xmlns="http://www.w3.org/2000/svg">
<path d="M14.5 10C12.0147 10 10 12.1207 10 14.7368L10 30.5263C10 33.1424 12.0147 35.2631 14.5 35.2631H19C19.8284 35.2631 20.5 34.5562 20.5 33.6842C20.5 32.8121 19.8284 32.1052 19 32.1052H14.5C13.6716 32.1052 13 31.3983 13 30.5263V14.7368C13 13.8648 13.6716 13.1579 14.5 13.1579H35.5C36.3284 13.1579 37 13.8648 37 14.7368V30.5263C37 31.3983 36.3284 32.1052 35.5 32.1052H28.004L29.9231 30.078C30.5101 29.4581 30.5101 28.4531 29.9231 27.8332C29.3363 27.2135 28.3849 27.2135 27.7981 27.8332L24.3906 31.4326L24.3707 31.4536C23.206 32.6932 23.2086 34.6957 24.3789 35.9317L27.7906 39.5354C28.377 40.1549 29.3278 40.1549 29.9143 39.5354C30.5008 38.9159 30.5008 37.9115 29.9143 37.2921L27.9934 35.2631H35.5C37.9853 35.2631 40 33.1424 40 30.5263V14.7368C40 12.1208 37.9853 10 35.5 10H14.5Z" fill="#F1EBEB"/>
</svg>
