<svg width="34" height="34" viewBox="0 0 34 34" fill="none" xmlns="http://www.w3.org/2000/svg">
<rect x="2" y="2" width="30" height="30" stroke="black" stroke-width="3"/>
<path d="M22.3339 13.166C23.1708 14.4011 23.6667 15.9364 23.6667 17.6C23.6667 19.2637 23.1708 20.7989 22.3339 22.0341M25 7.685C27.4549 10.1207 29 13.6604 29 17.6C29 21.5397 27.4549 25.0793 25 27.515M7.13333 13.166H8.33493C9.06951 13.166 9.43679 13.166 9.77713 13.0645C10.0787 12.9745 10.3637 12.8266 10.6191 12.6273C10.9073 12.4025 11.1424 12.0897 11.6127 11.4642L15.1139 6.80677C15.6948 6.03403 15.9852 5.64767 16.2389 5.60745C16.4587 5.57263 16.6796 5.66131 16.8283 5.84398C17 6.05492 17 6.55786 17 7.56374V27.6362C17 28.6422 17 29.1451 16.8283 29.356C16.6796 29.5387 16.4587 29.6274 16.2389 29.5925C15.9853 29.5523 15.6948 29.166 15.1139 28.3933L11.6127 23.7359C11.1424 23.1104 10.9073 22.7975 10.6191 22.5727C10.3637 22.3734 10.0787 22.2255 9.77713 22.1356C9.43679 22.0341 9.06951 22.0341 8.33493 22.0341H7.13333C6.3866 22.0341 6.01323 22.0341 5.72801 21.873C5.47713 21.7312 5.27316 21.5051 5.14532 21.2271C5 20.9109 5 20.4969 5 19.6693V15.5308C5 14.703 5 14.2891 5.14532 13.973C5.27316 13.6949 5.47713 13.4687 5.72801 13.3271C6.01323 13.166 6.3866 13.166 7.13333 13.166Z" stroke="white" stroke-width="3" stroke-linejoin="round"/>
</svg>
